<svg xmlns="http://www.w3.org/2000/svg" viewBox="0 0 24 24" id="cpu"><defs><linearGradient id="a" x1="5.056" x2="18.944" y1="18.944" y2="5.056" gradientUnits="userSpaceOnUse"><stop offset="0" stop-color="#33ffbb" class="stopColor5433ff svgShape"></stop><stop offset="1" stop-color="#00a76f" class="stopColor20bdff svgShape"></stop></linearGradient></defs><path fill="url(#a)" d="m21,12.75c.414,0,.75-.336.75-.75s-.336-.75-.75-.75h-1.25v-1.5h1.25c.414,0,.75-.336.75-.75s-.336-.75-.75-.75h-1.25v-1.25c0-1.517-1.233-2.75-2.75-2.75h-1.25v-1.25c0-.414-.336-.75-.75-.75s-.75.336-.75.75v1.25h-1.5v-1.25c0-.414-.336-.75-.75-.75s-.75.336-.75.75v1.25h-1.5v-1.25c0-.414-.336-.75-.75-.75s-.75.336-.75.75v1.25h-1.25c-1.517,0-2.75,1.233-2.75,2.75v1.25h-1.25c-.414,0-.75.336-.75.75s.336.75.75.75h1.25v1.5h-1.25c-.414,0-.75.336-.75.75s.336.75.75.75h1.25v1.5h-1.25c-.414,0-.75.336-.75.75s.336.75.75.75h1.25v1.25c0,1.517,1.233,2.75,2.75,2.75h1.25v1.25c0,.414.336.75.75.75s.75-.336.75-.75v-1.25h1.5v1.25c0,.414.336.75.75.75s.75-.336.75-.75v-1.25h1.5v1.25c0,.414.336.75.75.75s.75-.336.75-.75v-1.25h1.25c1.517,0,2.75-1.233,2.75-2.75v-1.25h1.25c.414,0,.75-.336.75-.75s-.336-.75-.75-.75h-1.25v-1.5h1.25Zm-2.75,4.25c0,.689-.561,1.25-1.25,1.25H7c-.689,0-1.25-.561-1.25-1.25V7c0-.689.561-1.25,1.25-1.25h10c.689,0,1.25.561,1.25,1.25v10Zm-4.25-9.75h-4c-1.517,0-2.75,1.233-2.75,2.75v4c0,1.517,1.233,2.75,2.75,2.75h4c1.517,0,2.75-1.233,2.75-2.75v-4c0-1.517-1.233-2.75-2.75-2.75Zm1.25,6.75c0,.689-.561,1.25-1.25,1.25h-4c-.689,0-1.25-.561-1.25-1.25v-4c0-.689.561-1.25,1.25-1.25h4c.689,0,1.25.561,1.25,1.25v4Z"></path></svg>